<mxfile host="app.diagrams.net" agent="Mozilla/5.0 (Windows NT 10.0; Win64; x64) AppleWebKit/537.36 (KHTML, like Gecko) Chrome/131.0.0.0 Safari/537.36" version="25.0.1">
  <diagram name="Page-1" id="tnfWb29I16zOsrCHEOF4">
    <mxGraphModel dx="1313" dy="653" grid="1" gridSize="10" guides="1" tooltips="1" connect="1" arrows="1" fold="1" page="1" pageScale="1" pageWidth="850" pageHeight="1100" math="0" shadow="0">
      <root>
        <mxCell id="0" />
        <mxCell id="1" parent="0" />
        <mxCell id="RX4mmWCpMnBs3eZu6-VL-1" value="" style="rounded=0;whiteSpace=wrap;html=1;rotation=90;" vertex="1" parent="1">
          <mxGeometry x="91.14" y="236.36" width="665.23" height="312.5" as="geometry" />
        </mxCell>
        <mxCell id="RX4mmWCpMnBs3eZu6-VL-2" value="&lt;font style=&quot;font-size: 14px;&quot;&gt;Authentication&lt;/font&gt;" style="ellipse;whiteSpace=wrap;html=1;" vertex="1" parent="1">
          <mxGeometry x="335" y="93.75" width="180" height="36.25" as="geometry" />
        </mxCell>
        <mxCell id="RX4mmWCpMnBs3eZu6-VL-3" value="&lt;font style=&quot;font-size: 14px;&quot;&gt;Request books&lt;/font&gt;" style="ellipse;whiteSpace=wrap;html=1;" vertex="1" parent="1">
          <mxGeometry x="335" y="140" width="180" height="36.25" as="geometry" />
        </mxCell>
        <mxCell id="RX4mmWCpMnBs3eZu6-VL-4" value="&lt;font style=&quot;font-size: 14px;&quot;&gt;Reserve books&lt;/font&gt;" style="ellipse;whiteSpace=wrap;html=1;" vertex="1" parent="1">
          <mxGeometry x="335" y="190" width="180" height="36.25" as="geometry" />
        </mxCell>
        <mxCell id="RX4mmWCpMnBs3eZu6-VL-5" value="&lt;font style=&quot;font-size: 14px;&quot;&gt;Invalid renevable&lt;/font&gt;" style="ellipse;whiteSpace=wrap;html=1;" vertex="1" parent="1">
          <mxGeometry x="333.75" y="261.88" width="180" height="36.25" as="geometry" />
        </mxCell>
        <mxCell id="RX4mmWCpMnBs3eZu6-VL-6" value="&lt;font style=&quot;font-size: 14px;&quot;&gt;Pays fine&lt;/font&gt;" style="ellipse;whiteSpace=wrap;html=1;" vertex="1" parent="1">
          <mxGeometry x="333.75" y="330" width="180" height="36.25" as="geometry" />
        </mxCell>
        <mxCell id="RX4mmWCpMnBs3eZu6-VL-7" value="&lt;font style=&quot;font-size: 14px;&quot;&gt;Add records&lt;/font&gt;" style="ellipse;whiteSpace=wrap;html=1;" vertex="1" parent="1">
          <mxGeometry x="333.75" y="370.86" width="180" height="36.25" as="geometry" />
        </mxCell>
        <mxCell id="RX4mmWCpMnBs3eZu6-VL-8" value="&lt;font style=&quot;font-size: 14px;&quot;&gt;Search &amp;amp; update database&lt;/font&gt;" style="ellipse;whiteSpace=wrap;html=1;" vertex="1" parent="1">
          <mxGeometry x="335" y="440" width="180" height="36.25" as="geometry" />
        </mxCell>
        <mxCell id="RX4mmWCpMnBs3eZu6-VL-9" value="&lt;font style=&quot;font-size: 14px;&quot;&gt;Library Management System&lt;/font&gt;" style="text;html=1;align=center;verticalAlign=middle;whiteSpace=wrap;rounded=0;" vertex="1" parent="1">
          <mxGeometry x="313.75" y="63.75" width="220" height="30" as="geometry" />
        </mxCell>
        <mxCell id="RX4mmWCpMnBs3eZu6-VL-10" value="&lt;font style=&quot;font-size: 14px;&quot;&gt;Invalid id&lt;/font&gt;" style="ellipse;whiteSpace=wrap;html=1;" vertex="1" parent="1">
          <mxGeometry x="330" y="490" width="180" height="36.25" as="geometry" />
        </mxCell>
        <mxCell id="RX4mmWCpMnBs3eZu6-VL-11" value="&lt;span style=&quot;font-size: 14px;&quot;&gt;Delete book record&lt;/span&gt;" style="ellipse;whiteSpace=wrap;html=1;" vertex="1" parent="1">
          <mxGeometry x="280" y="545.23" width="120" height="36.25" as="geometry" />
        </mxCell>
        <mxCell id="RX4mmWCpMnBs3eZu6-VL-12" value="&lt;font style=&quot;font-size: 14px;&quot;&gt;Update book record&lt;/font&gt;" style="ellipse;whiteSpace=wrap;html=1;" vertex="1" parent="1">
          <mxGeometry x="430" y="545.23" width="120" height="36.25" as="geometry" />
        </mxCell>
        <mxCell id="RX4mmWCpMnBs3eZu6-VL-13" value="&lt;font style=&quot;font-size: 14px;&quot;&gt;Update record id&lt;/font&gt;" style="ellipse;whiteSpace=wrap;html=1;" vertex="1" parent="1">
          <mxGeometry x="430" y="630" width="120" height="36.25" as="geometry" />
        </mxCell>
        <mxCell id="RX4mmWCpMnBs3eZu6-VL-14" value="&lt;font style=&quot;font-size: 14px;&quot;&gt;Feedback&lt;/font&gt;&lt;span style=&quot;color: rgba(0, 0, 0, 0); font-family: monospace; font-size: 0px; text-align: start; text-wrap-mode: nowrap;&quot;&gt;%3CmxGraphModel%3E%3Croot%3E%3CmxCell%20id%3D%220%22%2F%3E%3CmxCell%20id%3D%221%22%20parent%3D%220%22%2F%3E%3CmxCell%20id%3D%222%22%20value%3D%22%26lt%3Bfont%20style%3D%26quot%3Bfont-size%3A%2014px%3B%26quot%3B%26gt%3BInvalid%20id%26lt%3B%2Ffont%26gt%3B%22%20style%3D%22ellipse%3BwhiteSpace%3Dwrap%3Bhtml%3D1%3B%22%20vertex%3D%221%22%20parent%3D%221%22%3E%3CmxGeometry%20x%3D%22330%22%20y%3D%22490%22%20width%3D%22180%22%20height%3D%2236.25%22%20as%3D%22geometry%22%2F%3E%3C%2FmxCell%3E%3C%2Froot%3E%3C%2FmxGraphModel%3E&lt;/span&gt;" style="ellipse;whiteSpace=wrap;html=1;" vertex="1" parent="1">
          <mxGeometry x="290" y="600" width="140" height="36.25" as="geometry" />
        </mxCell>
        <mxCell id="RX4mmWCpMnBs3eZu6-VL-15" value="&lt;font style=&quot;font-size: 14px;&quot;&gt;Filling up feedback form&lt;/font&gt;" style="ellipse;whiteSpace=wrap;html=1;" vertex="1" parent="1">
          <mxGeometry x="323.75" y="680" width="200" height="36.25" as="geometry" />
        </mxCell>
        <mxCell id="RX4mmWCpMnBs3eZu6-VL-16" value="User" style="shape=umlActor;verticalLabelPosition=bottom;verticalAlign=top;html=1;outlineConnect=0;" vertex="1" parent="1">
          <mxGeometry x="60" y="306.25" width="95.23" height="160" as="geometry" />
        </mxCell>
        <mxCell id="RX4mmWCpMnBs3eZu6-VL-18" value="Libraries" style="shape=umlActor;verticalLabelPosition=bottom;verticalAlign=top;html=1;outlineConnect=0;" vertex="1" parent="1">
          <mxGeometry x="690" y="298.13" width="95.23" height="160" as="geometry" />
        </mxCell>
        <mxCell id="RX4mmWCpMnBs3eZu6-VL-19" value="" style="endArrow=none;html=1;rounded=0;entryX=0;entryY=0.5;entryDx=0;entryDy=0;" edge="1" parent="1" source="RX4mmWCpMnBs3eZu6-VL-16" target="RX4mmWCpMnBs3eZu6-VL-6">
          <mxGeometry width="50" height="50" relative="1" as="geometry">
            <mxPoint x="380" y="410" as="sourcePoint" />
            <mxPoint x="430" y="360" as="targetPoint" />
            <Array as="points">
              <mxPoint x="170" y="380" />
            </Array>
          </mxGeometry>
        </mxCell>
        <mxCell id="RX4mmWCpMnBs3eZu6-VL-20" value="" style="endArrow=none;html=1;rounded=0;entryX=0;entryY=0;entryDx=0;entryDy=0;" edge="1" parent="1" target="RX4mmWCpMnBs3eZu6-VL-14">
          <mxGeometry width="50" height="50" relative="1" as="geometry">
            <mxPoint x="165" y="410" as="sourcePoint" />
            <mxPoint x="344" y="338" as="targetPoint" />
          </mxGeometry>
        </mxCell>
        <mxCell id="RX4mmWCpMnBs3eZu6-VL-21" value="" style="endArrow=none;html=1;rounded=0;entryX=0;entryY=0.5;entryDx=0;entryDy=0;" edge="1" parent="1" target="RX4mmWCpMnBs3eZu6-VL-15">
          <mxGeometry width="50" height="50" relative="1" as="geometry">
            <mxPoint x="155.23" y="447" as="sourcePoint" />
            <mxPoint x="290.23" y="653" as="targetPoint" />
          </mxGeometry>
        </mxCell>
        <mxCell id="RX4mmWCpMnBs3eZu6-VL-23" value="" style="endArrow=none;html=1;rounded=0;entryX=0;entryY=0.5;entryDx=0;entryDy=0;" edge="1" parent="1" target="RX4mmWCpMnBs3eZu6-VL-5">
          <mxGeometry width="50" height="50" relative="1" as="geometry">
            <mxPoint x="160" y="370" as="sourcePoint" />
            <mxPoint x="310" y="626" as="targetPoint" />
          </mxGeometry>
        </mxCell>
        <mxCell id="RX4mmWCpMnBs3eZu6-VL-24" value="" style="endArrow=none;html=1;rounded=0;entryX=0;entryY=0.5;entryDx=0;entryDy=0;" edge="1" parent="1" target="RX4mmWCpMnBs3eZu6-VL-4">
          <mxGeometry width="50" height="50" relative="1" as="geometry">
            <mxPoint x="160" y="350" as="sourcePoint" />
            <mxPoint x="344" y="278" as="targetPoint" />
          </mxGeometry>
        </mxCell>
        <mxCell id="RX4mmWCpMnBs3eZu6-VL-26" value="" style="endArrow=none;html=1;rounded=0;entryX=0;entryY=0.5;entryDx=0;entryDy=0;" edge="1" parent="1" source="RX4mmWCpMnBs3eZu6-VL-16" target="RX4mmWCpMnBs3eZu6-VL-3">
          <mxGeometry width="50" height="50" relative="1" as="geometry">
            <mxPoint x="160" y="320" as="sourcePoint" />
            <mxPoint x="345" y="218" as="targetPoint" />
          </mxGeometry>
        </mxCell>
        <mxCell id="RX4mmWCpMnBs3eZu6-VL-27" value="" style="endArrow=none;html=1;rounded=0;entryX=0;entryY=0.5;entryDx=0;entryDy=0;" edge="1" parent="1" source="RX4mmWCpMnBs3eZu6-VL-16" target="RX4mmWCpMnBs3eZu6-VL-2">
          <mxGeometry width="50" height="50" relative="1" as="geometry">
            <mxPoint x="155.23" y="298.13" as="sourcePoint" />
            <mxPoint x="335.23" y="118.13" as="targetPoint" />
          </mxGeometry>
        </mxCell>
        <mxCell id="RX4mmWCpMnBs3eZu6-VL-28" value="" style="endArrow=none;html=1;rounded=0;entryX=1;entryY=0.5;entryDx=0;entryDy=0;" edge="1" parent="1" source="RX4mmWCpMnBs3eZu6-VL-18" target="RX4mmWCpMnBs3eZu6-VL-2">
          <mxGeometry width="50" height="50" relative="1" as="geometry">
            <mxPoint x="370" y="410" as="sourcePoint" />
            <mxPoint x="420" y="360" as="targetPoint" />
          </mxGeometry>
        </mxCell>
        <mxCell id="RX4mmWCpMnBs3eZu6-VL-29" value="" style="endArrow=none;html=1;rounded=0;entryX=1;entryY=0.5;entryDx=0;entryDy=0;" edge="1" parent="1" source="RX4mmWCpMnBs3eZu6-VL-18" target="RX4mmWCpMnBs3eZu6-VL-7">
          <mxGeometry width="50" height="50" relative="1" as="geometry">
            <mxPoint x="370" y="410" as="sourcePoint" />
            <mxPoint x="420" y="360" as="targetPoint" />
          </mxGeometry>
        </mxCell>
        <mxCell id="RX4mmWCpMnBs3eZu6-VL-30" value="" style="endArrow=none;html=1;rounded=0;entryX=1;entryY=0.5;entryDx=0;entryDy=0;" edge="1" parent="1" target="RX4mmWCpMnBs3eZu6-VL-8">
          <mxGeometry width="50" height="50" relative="1" as="geometry">
            <mxPoint x="690" y="400" as="sourcePoint" />
            <mxPoint x="524" y="388" as="targetPoint" />
          </mxGeometry>
        </mxCell>
        <mxCell id="RX4mmWCpMnBs3eZu6-VL-31" value="" style="endArrow=none;html=1;rounded=0;entryX=1;entryY=0.5;entryDx=0;entryDy=0;" edge="1" parent="1" target="RX4mmWCpMnBs3eZu6-VL-10">
          <mxGeometry width="50" height="50" relative="1" as="geometry">
            <mxPoint x="680" y="420" as="sourcePoint" />
            <mxPoint x="525" y="458" as="targetPoint" />
          </mxGeometry>
        </mxCell>
        <mxCell id="RX4mmWCpMnBs3eZu6-VL-32" value="" style="endArrow=none;html=1;rounded=0;entryX=1;entryY=0;entryDx=0;entryDy=0;" edge="1" parent="1" target="RX4mmWCpMnBs3eZu6-VL-13">
          <mxGeometry width="50" height="50" relative="1" as="geometry">
            <mxPoint x="690" y="440" as="sourcePoint" />
            <mxPoint x="520" y="518" as="targetPoint" />
          </mxGeometry>
        </mxCell>
        <mxCell id="RX4mmWCpMnBs3eZu6-VL-33" value="&amp;lt;&amp;lt;extend&amp;gt;&amp;gt;" style="html=1;verticalAlign=bottom;labelBackgroundColor=none;endArrow=open;endFill=0;dashed=1;rounded=0;exitX=0.5;exitY=1;exitDx=0;exitDy=0;" edge="1" parent="1" source="RX4mmWCpMnBs3eZu6-VL-4" target="RX4mmWCpMnBs3eZu6-VL-5">
          <mxGeometry width="160" relative="1" as="geometry">
            <mxPoint x="310" y="390" as="sourcePoint" />
            <mxPoint x="470" y="390" as="targetPoint" />
          </mxGeometry>
        </mxCell>
        <mxCell id="RX4mmWCpMnBs3eZu6-VL-34" value="&amp;lt;&amp;lt;include&amp;gt;&amp;gt;" style="html=1;verticalAlign=bottom;labelBackgroundColor=none;endArrow=open;endFill=0;dashed=1;rounded=0;exitX=0.5;exitY=1;exitDx=0;exitDy=0;entryX=0.5;entryY=0;entryDx=0;entryDy=0;" edge="1" parent="1" source="RX4mmWCpMnBs3eZu6-VL-5" target="RX4mmWCpMnBs3eZu6-VL-6">
          <mxGeometry width="160" relative="1" as="geometry">
            <mxPoint x="310" y="390" as="sourcePoint" />
            <mxPoint x="470" y="390" as="targetPoint" />
          </mxGeometry>
        </mxCell>
        <mxCell id="RX4mmWCpMnBs3eZu6-VL-35" value="&amp;lt;&amp;lt;include&amp;gt;&amp;gt;" style="html=1;verticalAlign=bottom;labelBackgroundColor=none;endArrow=open;endFill=0;dashed=1;rounded=0;exitX=0.5;exitY=1;exitDx=0;exitDy=0;" edge="1" parent="1" source="RX4mmWCpMnBs3eZu6-VL-7" target="RX4mmWCpMnBs3eZu6-VL-8">
          <mxGeometry width="160" relative="1" as="geometry">
            <mxPoint x="310" y="390" as="sourcePoint" />
            <mxPoint x="470" y="390" as="targetPoint" />
          </mxGeometry>
        </mxCell>
        <mxCell id="RX4mmWCpMnBs3eZu6-VL-36" value="&amp;lt;&amp;lt;include&amp;gt;&amp;gt;" style="html=1;verticalAlign=bottom;labelBackgroundColor=none;endArrow=open;endFill=0;dashed=1;rounded=0;exitX=0.5;exitY=1;exitDx=0;exitDy=0;" edge="1" parent="1" source="RX4mmWCpMnBs3eZu6-VL-12" target="RX4mmWCpMnBs3eZu6-VL-13">
          <mxGeometry width="160" relative="1" as="geometry">
            <mxPoint x="310" y="390" as="sourcePoint" />
            <mxPoint x="470" y="390" as="targetPoint" />
          </mxGeometry>
        </mxCell>
        <mxCell id="RX4mmWCpMnBs3eZu6-VL-37" value="&amp;lt;&amp;lt;include&amp;gt;&amp;gt;" style="html=1;verticalAlign=bottom;labelBackgroundColor=none;endArrow=open;endFill=0;dashed=1;rounded=0;exitX=0.5;exitY=1;exitDx=0;exitDy=0;" edge="1" parent="1" source="RX4mmWCpMnBs3eZu6-VL-14" target="RX4mmWCpMnBs3eZu6-VL-15">
          <mxGeometry width="160" relative="1" as="geometry">
            <mxPoint x="310" y="390" as="sourcePoint" />
            <mxPoint x="470" y="390" as="targetPoint" />
          </mxGeometry>
        </mxCell>
        <mxCell id="RX4mmWCpMnBs3eZu6-VL-39" value="" style="endArrow=block;endSize=16;endFill=0;html=1;rounded=0;entryX=0.5;entryY=1;entryDx=0;entryDy=0;exitX=0;exitY=0;exitDx=0;exitDy=0;" edge="1" parent="1" source="RX4mmWCpMnBs3eZu6-VL-12" target="RX4mmWCpMnBs3eZu6-VL-10">
          <mxGeometry width="160" relative="1" as="geometry">
            <mxPoint x="380" y="560" as="sourcePoint" />
            <mxPoint x="420" y="540" as="targetPoint" />
          </mxGeometry>
        </mxCell>
        <mxCell id="RX4mmWCpMnBs3eZu6-VL-40" value="" style="endArrow=block;endSize=16;endFill=0;html=1;rounded=0;entryX=0.445;entryY=1.034;entryDx=0;entryDy=0;entryPerimeter=0;exitX=1;exitY=0;exitDx=0;exitDy=0;" edge="1" parent="1" source="RX4mmWCpMnBs3eZu6-VL-11" target="RX4mmWCpMnBs3eZu6-VL-10">
          <mxGeometry width="160" relative="1" as="geometry">
            <mxPoint x="390" y="570" as="sourcePoint" />
            <mxPoint x="430" y="550" as="targetPoint" />
          </mxGeometry>
        </mxCell>
      </root>
    </mxGraphModel>
  </diagram>
</mxfile>
